<mxfile host="app.diagrams.net" modified="2024-02-01T20:09:22.440Z" agent="Mozilla/5.0 (Macintosh; Intel Mac OS X 10_15_7) AppleWebKit/537.36 (KHTML, like Gecko) Chrome/121.0.0.0 Safari/537.36" etag="4YrOklA4adHqC1DsYtVx" version="23.1.1" type="github">
  <diagram name="Page-1" id="ydWo8Uq9T4OZpwoPjz9b">
    <mxGraphModel dx="963" dy="736" grid="1" gridSize="10" guides="1" tooltips="1" connect="1" arrows="1" fold="1" page="1" pageScale="1" pageWidth="850" pageHeight="1100" math="0" shadow="0">
      <root>
        <mxCell id="0" />
        <mxCell id="1" parent="0" />
        <mxCell id="cic8n7e-4aj5aAH58W3u-74" style="edgeStyle=orthogonalEdgeStyle;rounded=0;orthogonalLoop=1;jettySize=auto;html=1;" edge="1" parent="1" source="cic8n7e-4aj5aAH58W3u-1" target="cic8n7e-4aj5aAH58W3u-70">
          <mxGeometry relative="1" as="geometry" />
        </mxCell>
        <mxCell id="cic8n7e-4aj5aAH58W3u-1" value="slave1" style="shape=cylinder3;whiteSpace=wrap;html=1;boundedLbl=1;backgroundOutline=1;size=15;" vertex="1" parent="1">
          <mxGeometry x="690" y="480" width="50" height="60" as="geometry" />
        </mxCell>
        <mxCell id="cic8n7e-4aj5aAH58W3u-73" style="edgeStyle=orthogonalEdgeStyle;rounded=0;orthogonalLoop=1;jettySize=auto;html=1;exitX=0;exitY=0.5;exitDx=0;exitDy=0;exitPerimeter=0;" edge="1" parent="1" source="cic8n7e-4aj5aAH58W3u-2" target="cic8n7e-4aj5aAH58W3u-70">
          <mxGeometry relative="1" as="geometry" />
        </mxCell>
        <mxCell id="cic8n7e-4aj5aAH58W3u-2" value="slave2" style="shape=cylinder3;whiteSpace=wrap;html=1;boundedLbl=1;backgroundOutline=1;size=15;" vertex="1" parent="1">
          <mxGeometry x="690" y="309.5" width="50" height="62.5" as="geometry" />
        </mxCell>
        <mxCell id="cic8n7e-4aj5aAH58W3u-14" value="" style="verticalLabelPosition=bottom;verticalAlign=top;html=1;shape=mxgraph.basic.smiley" vertex="1" parent="1">
          <mxGeometry x="60" y="50" width="40" height="40" as="geometry" />
        </mxCell>
        <mxCell id="cic8n7e-4aj5aAH58W3u-16" value="Scale from zero to million users" style="text;strokeColor=none;fillColor=none;align=left;verticalAlign=top;spacingLeft=4;spacingRight=4;overflow=hidden;rotatable=0;points=[[0,0.5],[1,0.5]];portConstraint=eastwest;whiteSpace=wrap;html=1;fontStyle=1;fontSize=14;" vertex="1" parent="1">
          <mxGeometry x="110" y="60" width="240" height="30" as="geometry" />
        </mxCell>
        <mxCell id="cic8n7e-4aj5aAH58W3u-18" value="" style="verticalLabelPosition=bottom;html=1;verticalAlign=top;align=center;strokeColor=none;fillColor=#00BEF2;shape=mxgraph.azure.azure_load_balancer;" vertex="1" parent="1">
          <mxGeometry x="190" y="362.5" width="60" height="50" as="geometry" />
        </mxCell>
        <mxCell id="cic8n7e-4aj5aAH58W3u-23" value="" style="image;sketch=0;aspect=fixed;html=1;points=[];align=center;fontSize=12;image=img/lib/mscae/DNS.svg;" vertex="1" parent="1">
          <mxGeometry x="80" y="220" width="50" height="50" as="geometry" />
        </mxCell>
        <mxCell id="cic8n7e-4aj5aAH58W3u-28" style="edgeStyle=orthogonalEdgeStyle;rounded=0;orthogonalLoop=1;jettySize=auto;html=1;exitX=1;exitY=0.5;exitDx=0;exitDy=0;exitPerimeter=0;" edge="1" parent="1" source="cic8n7e-4aj5aAH58W3u-24" target="cic8n7e-4aj5aAH58W3u-70">
          <mxGeometry relative="1" as="geometry">
            <mxPoint x="600" y="393" as="targetPoint" />
          </mxGeometry>
        </mxCell>
        <mxCell id="cic8n7e-4aj5aAH58W3u-24" value="" style="outlineConnect=0;dashed=0;verticalLabelPosition=bottom;verticalAlign=top;align=center;html=1;shape=mxgraph.aws3.cache_node;fillColor=#2E73B8;gradientColor=none;" vertex="1" parent="1">
          <mxGeometry x="500" y="387.5" width="65" height="56" as="geometry" />
        </mxCell>
        <mxCell id="cic8n7e-4aj5aAH58W3u-29" value="&lt;h3 style=&quot;box-sizing: border-box; outline: none; font-family: -apple-system, &amp;quot;system-ui&amp;quot;, &amp;quot;Segoe UI&amp;quot;, &amp;quot;PingFang SC&amp;quot;, &amp;quot;Hiragino Sans GB&amp;quot;, &amp;quot;Microsoft YaHei&amp;quot;, &amp;quot;Helvetica Neue&amp;quot;, Helvetica, Arial, sans-serif, &amp;quot;Apple Color Emoji&amp;quot;, &amp;quot;Segoe UI Emoji&amp;quot;, &amp;quot;Segoe UI Symbol&amp;quot;; margin-top: 0px; margin-bottom: 10px; color: rgb(40, 40, 40); font-weight: 600; font-size: 12px; line-height: 37px; font-style: normal; font-variant-ligatures: normal; font-variant-caps: normal; letter-spacing: normal; orphans: 2; text-align: start; text-indent: 0px; text-transform: none; widows: 2; word-spacing: 0px; -webkit-text-stroke-width: 0px; text-decoration-thickness: initial; text-decoration-style: initial; text-decoration-color: initial;&quot;&gt;Stateless architecture&lt;/h3&gt;" style="text;whiteSpace=wrap;html=1;fontSize=12;" vertex="1" parent="1">
          <mxGeometry x="290" y="250" width="150" height="40" as="geometry" />
        </mxCell>
        <mxCell id="cic8n7e-4aj5aAH58W3u-38" value="" style="group" vertex="1" connectable="0" parent="1">
          <mxGeometry x="20" y="330" width="100" height="110" as="geometry" />
        </mxCell>
        <mxCell id="cic8n7e-4aj5aAH58W3u-37" value="" style="rounded=1;whiteSpace=wrap;html=1;align=left;" vertex="1" parent="cic8n7e-4aj5aAH58W3u-38">
          <mxGeometry width="100" height="110" as="geometry" />
        </mxCell>
        <mxCell id="cic8n7e-4aj5aAH58W3u-35" value="" style="sketch=0;pointerEvents=1;shadow=0;dashed=0;html=1;strokeColor=none;fillColor=#005F4B;labelPosition=center;verticalLabelPosition=bottom;verticalAlign=top;align=center;outlineConnect=0;shape=mxgraph.veeam2.laptop;" vertex="1" parent="cic8n7e-4aj5aAH58W3u-38">
          <mxGeometry x="30" y="63.114754098360656" width="40" height="25.245901639344268" as="geometry" />
        </mxCell>
        <mxCell id="cic8n7e-4aj5aAH58W3u-36" value="" style="html=1;verticalLabelPosition=bottom;align=center;labelBackgroundColor=#ffffff;verticalAlign=top;strokeWidth=2;strokeColor=#0080F0;shadow=0;dashed=0;shape=mxgraph.ios7.icons.smartphone;" vertex="1" parent="cic8n7e-4aj5aAH58W3u-38">
          <mxGeometry x="42.5" y="18.0327868852459" width="15" height="27.049180327868857" as="geometry" />
        </mxCell>
        <mxCell id="cic8n7e-4aj5aAH58W3u-39" value="" style="endArrow=classic;html=1;rounded=0;entryX=0.05;entryY=0.5;entryDx=0;entryDy=0;entryPerimeter=0;" edge="1" parent="1" target="cic8n7e-4aj5aAH58W3u-18">
          <mxGeometry width="50" height="50" relative="1" as="geometry">
            <mxPoint x="120" y="385" as="sourcePoint" />
            <mxPoint x="200" y="380" as="targetPoint" />
          </mxGeometry>
        </mxCell>
        <mxCell id="cic8n7e-4aj5aAH58W3u-40" value="" style="group" vertex="1" connectable="0" parent="1">
          <mxGeometry x="20" y="480" width="100" height="110" as="geometry" />
        </mxCell>
        <mxCell id="cic8n7e-4aj5aAH58W3u-41" value="" style="rounded=1;whiteSpace=wrap;html=1;" vertex="1" parent="cic8n7e-4aj5aAH58W3u-40">
          <mxGeometry width="100" height="110" as="geometry" />
        </mxCell>
        <mxCell id="cic8n7e-4aj5aAH58W3u-42" value="" style="sketch=0;pointerEvents=1;shadow=0;dashed=0;html=1;strokeColor=none;fillColor=#005F4B;labelPosition=center;verticalLabelPosition=bottom;verticalAlign=top;align=center;outlineConnect=0;shape=mxgraph.veeam2.laptop;" vertex="1" parent="cic8n7e-4aj5aAH58W3u-40">
          <mxGeometry x="30" y="63.114754098360656" width="40" height="25.245901639344268" as="geometry" />
        </mxCell>
        <mxCell id="cic8n7e-4aj5aAH58W3u-43" value="" style="html=1;verticalLabelPosition=bottom;align=center;labelBackgroundColor=#ffffff;verticalAlign=top;strokeWidth=2;strokeColor=#0080F0;shadow=0;dashed=0;shape=mxgraph.ios7.icons.smartphone;" vertex="1" parent="cic8n7e-4aj5aAH58W3u-40">
          <mxGeometry x="42.5" y="18.0327868852459" width="15" height="27.049180327868857" as="geometry" />
        </mxCell>
        <mxCell id="cic8n7e-4aj5aAH58W3u-44" value="" style="endArrow=classic;html=1;rounded=0;entryX=0.5;entryY=1;entryDx=0;entryDy=0;entryPerimeter=0;exitX=1;exitY=0.5;exitDx=0;exitDy=0;" edge="1" parent="1" source="cic8n7e-4aj5aAH58W3u-41" target="cic8n7e-4aj5aAH58W3u-18">
          <mxGeometry width="50" height="50" relative="1" as="geometry">
            <mxPoint x="270" y="570" as="sourcePoint" />
            <mxPoint x="320" y="520" as="targetPoint" />
          </mxGeometry>
        </mxCell>
        <mxCell id="cic8n7e-4aj5aAH58W3u-45" value="" style="endArrow=classic;startArrow=classic;html=1;rounded=0;" edge="1" parent="1" target="cic8n7e-4aj5aAH58W3u-23">
          <mxGeometry width="50" height="50" relative="1" as="geometry">
            <mxPoint x="60" y="330" as="sourcePoint" />
            <mxPoint x="110" y="280" as="targetPoint" />
          </mxGeometry>
        </mxCell>
        <mxCell id="cic8n7e-4aj5aAH58W3u-54" value="" style="group" vertex="1" connectable="0" parent="1">
          <mxGeometry x="310" y="309.5" width="110" height="212" as="geometry" />
        </mxCell>
        <mxCell id="cic8n7e-4aj5aAH58W3u-46" value="" style="rounded=1;whiteSpace=wrap;html=1;" vertex="1" parent="cic8n7e-4aj5aAH58W3u-54">
          <mxGeometry width="110" height="212" as="geometry" />
        </mxCell>
        <mxCell id="cic8n7e-4aj5aAH58W3u-52" value="" style="group" vertex="1" connectable="0" parent="cic8n7e-4aj5aAH58W3u-54">
          <mxGeometry x="21" y="50" width="68" height="90" as="geometry" />
        </mxCell>
        <mxCell id="cic8n7e-4aj5aAH58W3u-5" value="" style="image;aspect=fixed;perimeter=ellipsePerimeter;html=1;align=center;shadow=0;dashed=0;spacingTop=3;image=img/lib/active_directory/generic_server.svg;" vertex="1" parent="cic8n7e-4aj5aAH58W3u-52">
          <mxGeometry width="28.000000000000004" height="50" as="geometry" />
        </mxCell>
        <mxCell id="cic8n7e-4aj5aAH58W3u-48" value="" style="image;aspect=fixed;perimeter=ellipsePerimeter;html=1;align=center;shadow=0;dashed=0;spacingTop=3;image=img/lib/active_directory/generic_server.svg;" vertex="1" parent="cic8n7e-4aj5aAH58W3u-52">
          <mxGeometry x="10" y="10" width="28.000000000000004" height="50" as="geometry" />
        </mxCell>
        <mxCell id="cic8n7e-4aj5aAH58W3u-49" value="" style="image;aspect=fixed;perimeter=ellipsePerimeter;html=1;align=center;shadow=0;dashed=0;spacingTop=3;image=img/lib/active_directory/generic_server.svg;" vertex="1" parent="cic8n7e-4aj5aAH58W3u-52">
          <mxGeometry x="20" y="20" width="28.000000000000004" height="50" as="geometry" />
        </mxCell>
        <mxCell id="cic8n7e-4aj5aAH58W3u-50" value="" style="image;aspect=fixed;perimeter=ellipsePerimeter;html=1;align=center;shadow=0;dashed=0;spacingTop=3;image=img/lib/active_directory/generic_server.svg;" vertex="1" parent="cic8n7e-4aj5aAH58W3u-52">
          <mxGeometry x="30" y="30" width="28.000000000000004" height="50" as="geometry" />
        </mxCell>
        <mxCell id="cic8n7e-4aj5aAH58W3u-51" value="" style="image;aspect=fixed;perimeter=ellipsePerimeter;html=1;align=center;shadow=0;dashed=0;spacingTop=3;image=img/lib/active_directory/generic_server.svg;" vertex="1" parent="cic8n7e-4aj5aAH58W3u-52">
          <mxGeometry x="40" y="40" width="28.000000000000004" height="50" as="geometry" />
        </mxCell>
        <mxCell id="cic8n7e-4aj5aAH58W3u-56" value="" style="endArrow=classic;html=1;rounded=0;" edge="1" parent="cic8n7e-4aj5aAH58W3u-54" source="cic8n7e-4aj5aAH58W3u-46">
          <mxGeometry width="50" height="50" relative="1" as="geometry">
            <mxPoint x="-190" y="-144" as="sourcePoint" />
            <mxPoint x="180.71067811865476" y="106" as="targetPoint" />
          </mxGeometry>
        </mxCell>
        <mxCell id="cic8n7e-4aj5aAH58W3u-55" value="" style="endArrow=classic;html=1;rounded=0;exitX=0.955;exitY=0.5;exitDx=0;exitDy=0;exitPerimeter=0;entryX=-0.027;entryY=0.417;entryDx=0;entryDy=0;entryPerimeter=0;" edge="1" parent="1" source="cic8n7e-4aj5aAH58W3u-18" target="cic8n7e-4aj5aAH58W3u-46">
          <mxGeometry width="50" height="50" relative="1" as="geometry">
            <mxPoint x="270" y="500" as="sourcePoint" />
            <mxPoint x="320" y="450" as="targetPoint" />
          </mxGeometry>
        </mxCell>
        <mxCell id="cic8n7e-4aj5aAH58W3u-69" style="edgeStyle=orthogonalEdgeStyle;rounded=0;orthogonalLoop=1;jettySize=auto;html=1;exitX=1;exitY=0.51;exitDx=0;exitDy=0;exitPerimeter=0;" edge="1" parent="1" source="cic8n7e-4aj5aAH58W3u-57" target="cic8n7e-4aj5aAH58W3u-61">
          <mxGeometry relative="1" as="geometry" />
        </mxCell>
        <mxCell id="cic8n7e-4aj5aAH58W3u-57" value="Message Q" style="sketch=0;aspect=fixed;pointerEvents=1;shadow=0;dashed=0;html=1;strokeColor=none;labelPosition=center;verticalLabelPosition=bottom;verticalAlign=top;align=center;fillColor=#00188D;shape=mxgraph.azure.queue_generic" vertex="1" parent="1">
          <mxGeometry x="265" y="620" width="200" height="60" as="geometry" />
        </mxCell>
        <mxCell id="cic8n7e-4aj5aAH58W3u-59" value="" style="endArrow=classic;html=1;rounded=0;entryX=0.5;entryY=0;entryDx=0;entryDy=0;entryPerimeter=0;exitX=0.5;exitY=1;exitDx=0;exitDy=0;" edge="1" parent="1" source="cic8n7e-4aj5aAH58W3u-46" target="cic8n7e-4aj5aAH58W3u-57">
          <mxGeometry width="50" height="50" relative="1" as="geometry">
            <mxPoint x="330" y="580" as="sourcePoint" />
            <mxPoint x="380" y="530" as="targetPoint" />
          </mxGeometry>
        </mxCell>
        <mxCell id="cic8n7e-4aj5aAH58W3u-60" value="" style="group;verticalAlign=bottom;" vertex="1" connectable="0" parent="1">
          <mxGeometry x="510" y="590" width="110" height="110" as="geometry" />
        </mxCell>
        <mxCell id="cic8n7e-4aj5aAH58W3u-61" value="" style="rounded=1;whiteSpace=wrap;html=1;" vertex="1" parent="cic8n7e-4aj5aAH58W3u-60">
          <mxGeometry width="110" height="110" as="geometry" />
        </mxCell>
        <mxCell id="cic8n7e-4aj5aAH58W3u-62" value="" style="group" vertex="1" connectable="0" parent="cic8n7e-4aj5aAH58W3u-60">
          <mxGeometry x="21" y="25.943396226415096" width="68" height="46.69811320754717" as="geometry" />
        </mxCell>
        <mxCell id="cic8n7e-4aj5aAH58W3u-63" value="" style="image;aspect=fixed;perimeter=ellipsePerimeter;html=1;align=center;shadow=0;dashed=0;spacingTop=3;image=img/lib/active_directory/generic_server.svg;" vertex="1" parent="cic8n7e-4aj5aAH58W3u-62">
          <mxGeometry width="14.528301886792457" height="25.943396226415096" as="geometry" />
        </mxCell>
        <mxCell id="cic8n7e-4aj5aAH58W3u-64" value="" style="image;aspect=fixed;perimeter=ellipsePerimeter;html=1;align=center;shadow=0;dashed=0;spacingTop=3;image=img/lib/active_directory/generic_server.svg;" vertex="1" parent="cic8n7e-4aj5aAH58W3u-62">
          <mxGeometry x="10" y="5.188679245283019" width="14.528301886792457" height="25.943396226415096" as="geometry" />
        </mxCell>
        <mxCell id="cic8n7e-4aj5aAH58W3u-65" value="" style="image;aspect=fixed;perimeter=ellipsePerimeter;html=1;align=center;shadow=0;dashed=0;spacingTop=3;image=img/lib/active_directory/generic_server.svg;" vertex="1" parent="cic8n7e-4aj5aAH58W3u-62">
          <mxGeometry x="20" y="10.377358490566039" width="14.528301886792457" height="25.943396226415096" as="geometry" />
        </mxCell>
        <mxCell id="cic8n7e-4aj5aAH58W3u-66" value="&lt;div style=&quot;text-align: justify;&quot;&gt;workers&lt;/div&gt;" style="image;aspect=fixed;perimeter=ellipsePerimeter;html=1;align=right;shadow=0;dashed=0;spacingTop=3;image=img/lib/active_directory/generic_server.svg;" vertex="1" parent="cic8n7e-4aj5aAH58W3u-62">
          <mxGeometry x="30" y="15.57" width="13.68" height="24.43" as="geometry" />
        </mxCell>
        <mxCell id="cic8n7e-4aj5aAH58W3u-67" value="" style="image;aspect=fixed;perimeter=ellipsePerimeter;html=1;align=center;shadow=0;dashed=0;spacingTop=3;image=img/lib/active_directory/generic_server.svg;" vertex="1" parent="cic8n7e-4aj5aAH58W3u-62">
          <mxGeometry x="40" y="20.754716981132077" width="14.528301886792457" height="25.943396226415096" as="geometry" />
        </mxCell>
        <mxCell id="cic8n7e-4aj5aAH58W3u-68" value="" style="endArrow=classic;html=1;rounded=0;" edge="1" parent="cic8n7e-4aj5aAH58W3u-60" source="cic8n7e-4aj5aAH58W3u-61">
          <mxGeometry width="50" height="50" relative="1" as="geometry">
            <mxPoint x="-190" y="-74.71698113207547" as="sourcePoint" />
            <mxPoint x="180.71067811865476" y="55" as="targetPoint" />
          </mxGeometry>
        </mxCell>
        <mxCell id="cic8n7e-4aj5aAH58W3u-70" value="" style="image;sketch=0;aspect=fixed;html=1;points=[];align=center;fontSize=12;image=img/lib/mscae/SQL_Database_generic.svg;" vertex="1" parent="1">
          <mxGeometry x="620" y="387.5" width="50" height="65.79" as="geometry" />
        </mxCell>
        <mxCell id="cic8n7e-4aj5aAH58W3u-71" value="NoSQL" style="shape=cylinder3;whiteSpace=wrap;html=1;boundedLbl=1;backgroundOutline=1;size=15;" vertex="1" parent="1">
          <mxGeometry x="690" y="610" width="50" height="70" as="geometry" />
        </mxCell>
      </root>
    </mxGraphModel>
  </diagram>
</mxfile>
